<svg width="887" height="202" viewBox="0 0 887 202" fill="none" xmlns="http://www.w3.org/2000/svg">
<path d="M624.92 0.0200501C572.48 0.99005 529.72 43.8401 528.85 96.2901C528.39 124.15 539.56 149.4 557.83 167.51C557.83 167.51 561.24 187.21 546.89 198.86C545.83 199.72 546.36 201.44 547.73 201.52C555.33 201.97 572.15 200.98 582.28 185.23C596.9 192.7 613.64 196.6 631.36 195.8C682.64 193.47 723.76 151.14 724.71 99.8201C725.74 44.2401 680.48 -1.00995 624.92 0.0200501Z" fill="url(#paint0_linear_116_54)"/>
<path d="M698.03 97.9501C698.03 137.3 666.13 131.88 626.78 131.88C587.43 131.88 555.53 137.3 555.53 97.9501C555.53 58.6001 587.43 26.7001 626.78 26.7001C666.13 26.7001 698.03 58.6001 698.03 97.9501Z" fill="white"/>
<path d="M595.65 153.67C595.65 138.68 609.58 141.62 626.77 141.62C643.96 141.62 657.89 138.68 657.89 153.67C657.89 168.66 643.96 180.81 626.77 180.81C609.58 180.81 595.65 168.66 595.65 153.67Z" fill="white"/>
<path d="M626.78 99.53C632.336 99.53 636.84 95.026 636.84 89.47C636.84 83.914 632.336 79.41 626.78 79.41C621.224 79.41 616.72 83.914 616.72 89.47C616.72 95.026 621.224 99.53 626.78 99.53Z" fill="#F826C1"/>
<path d="M591.78 99.53C597.336 99.53 601.84 95.026 601.84 89.47C601.84 83.914 597.336 79.41 591.78 79.41C586.224 79.41 581.72 83.914 581.72 89.47C581.72 95.026 586.224 99.53 591.78 99.53Z" fill="#F826C1"/>
<path d="M661.77 99.53C667.326 99.53 671.83 95.026 671.83 89.47C671.83 83.914 667.326 79.41 661.77 79.41C656.214 79.41 651.71 83.914 651.71 89.47C651.71 95.026 656.214 99.53 661.77 99.53Z" fill="#F826C1"/>
<path d="M178.31 70.6801C194.3 70.6801 206.04 74.7601 213.71 83.0801C221.38 91.2401 225.13 101.51 225.13 113.74C225.13 125.97 221.22 136.09 213.22 143.75C205.39 151.42 192.99 155.33 176.03 155.33H163.83C163 155.33 162.33 156 162.33 156.83V189.72C162.33 190.55 161.66 191.22 160.83 191.22H129.9C129.07 191.22 128.4 190.55 128.4 189.72V72.1801C128.4 71.3501 129.07 70.6801 129.9 70.6801H178.31ZM177.66 125C185.65 125 190.22 119.94 190.22 113.42C190.22 106.9 185.16 101.68 177.99 101.68H163.83C163 101.68 162.33 102.35 162.33 103.18V123.51C162.33 124.34 163 125.01 163.83 125.01H177.66V125Z" fill="#FFAA00"/>
<path d="M288.9 70.6801C304.88 70.6801 316.63 74.7601 324.3 83.0801C331.97 91.2401 335.72 101.51 335.72 113.74C335.72 125.97 331.81 136.09 323.81 143.75C315.98 151.42 303.58 155.33 286.62 155.33H274.42C273.59 155.33 272.92 156 272.92 156.83V189.72C272.92 190.55 272.25 191.22 271.42 191.22H240.49C239.66 191.22 238.99 190.55 238.99 189.72V72.1801C238.99 71.3501 239.66 70.6801 240.49 70.6801H288.9ZM288.25 125C296.24 125 300.81 119.94 300.81 113.42C300.81 106.9 295.75 101.68 288.58 101.68H274.42C273.59 101.68 272.92 102.35 272.92 103.18V123.51C272.92 124.34 273.59 125.01 274.42 125.01H288.25V125Z" fill="#FFAA00"/>
<path d="M513.18 135.94C513.18 152.1 507.63 165.48 496.27 175.83C484.91 186.18 470.27 191.23 452.35 191.23H358.68C357.85 191.23 357.18 190.56 357.18 189.73V6.17004C357.18 5.34004 357.85 4.67004 358.68 4.67004H447.81C465.23 4.67004 478.86 9.21004 488.71 18.3C498.56 27.39 503.35 38.24 503.35 50.61C503.35 66.02 494.55 80.59 481.53 87.07C480.32 87.67 480.42 89.43 481.71 89.84C502.28 96.31 513.2 114.12 513.2 135.93L513.18 135.94ZM408.67 50.1V73.61C408.67 74.44 409.34 75.11 410.17 75.11H435.43C446.79 75.11 451.84 69.05 451.84 61.98C451.84 54.91 446.54 48.6 437.7 48.6H410.17C409.34 48.6 408.67 49.27 408.67 50.1ZM440.73 146.8C453.6 146.8 459.16 139.48 459.16 131.4C459.16 123.32 453.35 116.25 442.5 116.25H410.17C409.34 116.25 408.67 116.92 408.67 117.75V145.3C408.67 146.13 409.34 146.8 410.17 146.8H440.73Z" fill="#FFAA00"/>
<path d="M781.54 55.16H733.55C732.72 55.16 732.05 54.49 732.05 53.66V6.17004C732.05 5.34004 732.72 4.67004 733.55 4.67004H885.3C886.13 4.67004 886.8 5.34004 886.8 6.17004V53.66C886.8 54.49 886.13 55.16 885.3 55.16H837.56C836.73 55.16 836.06 55.83 836.06 56.66V189.72C836.06 190.55 835.39 191.22 834.56 191.22H784.55C783.72 191.22 783.05 190.55 783.05 189.72V56.66C783.05 55.83 782.38 55.16 781.55 55.16H781.54Z" fill="#FFAA00"/>
<path d="M116.29 189.24L75.7299 71.7001C75.5199 71.1001 74.9499 70.6901 74.3099 70.6901H43.3299C42.6999 70.6901 42.1299 71.0901 41.9199 71.6901L0.0899394 189.22C-0.260061 190.2 0.469939 191.22 1.49994 191.22H114.88C115.91 191.22 116.63 190.21 116.3 189.23L116.29 189.24ZM43.4399 160.09L57.2699 113.92C57.6999 112.48 59.7399 112.5 60.1499 113.94L73.3399 160.11C73.6099 161.07 72.8899 162.02 71.8999 162.02H44.8799C43.8799 162.02 43.1599 161.05 43.4399 160.09Z" fill="#FFAA00"/>
<defs>
<linearGradient id="paint0_linear_116_54" x1="528.83" y1="100.8" x2="724.72" y2="100.8" gradientUnits="userSpaceOnUse">
<stop stop-color="#4E10E1"/>
<stop offset="1" stop-color="#F0378B"/>
</linearGradient>
</defs>
</svg>
